<svg id="visual" viewBox="0 0 900 600" width="900" height="600" xmlns="http://www.w3.org/2000/svg" xmlns:xlink="http://www.w3.org/1999/xlink" version="1.1"><rect x="0" y="0" width="900" height="600" fill="#f3f4f6"></rect><path d="M0 393L16.7 399C33.3 405 66.7 417 100 423.3C133.3 429.7 166.7 430.3 200 413.7C233.3 397 266.7 363 300 361.7C333.3 360.3 366.7 391.7 400 404.5C433.3 417.3 466.7 411.7 500 393C533.3 374.3 566.7 342.7 600 348.8C633.3 355 666.7 399 700 413C733.3 427 766.7 411 800 409C833.3 407 866.7 419 883.3 425L900 431L900 601L883.3 601C866.7 601 833.3 601 800 601C766.7 601 733.3 601 700 601C666.7 601 633.3 601 600 601C566.7 601 533.3 601 500 601C466.7 601 433.3 601 400 601C366.7 601 333.3 601 300 601C266.7 601 233.3 601 200 601C166.7 601 133.3 601 100 601C66.7 601 33.3 601 16.7 601L0 601Z" fill="#dc2626" stroke-linecap="round" stroke-linejoin="miter"></path></svg>